<svg xmlns="http://www.w3.org/2000/svg" viewBox="0 0 520 150" role="img" aria-labelledby="title desc">
  <title id="title">Centro Avancado Dreams</title>
  <desc id="desc">Logo elegante com monograma Dreams e assinatura Centro Avancado de Estetica</desc>
  <defs>
    <linearGradient id="gold" x1="0" x2="1" y1="0" y2="1">
      <stop offset="0" stop-color="#d5c3a8"/>
      <stop offset="0.55" stop-color="#aa9678"/>
      <stop offset="1" stop-color="#7e6b52"/>
    </linearGradient>
  </defs>
  <rect width="520" height="150" fill="none"/>
  <g transform="translate(18 16)">
    <circle cx="58" cy="58" r="55" fill="#f4f3ee" stroke="url(#gold)" stroke-width="3"/>
    <path d="M42 91V25h24c21 0 36 13 36 33 0 19-15 33-36 33H42Zm18-15h6c11 0 18-7 18-18s-7-18-18-18h-6v36Z" fill="url(#gold)"/>
    <path d="M29 31c17-18 44-22 66-10-23-3-42 5-55 22-12 16-14 36-6 55-17-18-19-48-5-67Z" fill="url(#gold)" opacity=".92"/>
    <path d="M91 31c-9-8-21-13-35-13 21-8 46-1 59 17l-24-4Z" fill="url(#gold)" opacity=".92"/>
  </g>
  <g transform="translate(150 42)">
    <text x="0" y="34" fill="url(#gold)" font-family="Georgia, 'Times New Roman', serif" font-size="48" font-weight="500" letter-spacing="1">Dreams</text>
    <path d="M2 53h235" stroke="url(#gold)" stroke-width="2"/>
    <text x="0" y="82" fill="#7f705f" font-family="Arial, Helvetica, sans-serif" font-size="13" font-weight="700" letter-spacing="3.2">CENTRO AVANCADO DE ESTETICA</text>
  </g>
</svg>
